
        <svg xmlns="http://www.w3.org/2000/svg" xmlns:xlink="http://www.w3.org/1999/xlink" version="1.1" width="3193.2165437411563" height="1864.53964710216" viewBox="0 0 3193.2165437411563 1864.53964710216">
			
			<g transform="scale(9.660827187057823) translate(10, 10)">
				<defs id="SvgjsDefs1027"/><g id="SvgjsG1028" featureKey="Df7oLJ-0" transform="matrix(-1.1700000000000002,0,0,1.1700000000000002,213.21894258499148,0)" fill="#000"><path xmlns="http://www.w3.org/2000/svg" d="M49.2,37.6c-6,0-11.5,3.4-14.2,8.8c-0.5,1-0.1,2.2,0.9,2.7c0.3,0.1,0.6,0.2,0.9,0.2c0.7,0,1.4-0.4,1.8-1.1  c2-4,6.1-6.5,10.6-6.5s8.6,2.6,10.6,6.5c0.3,0.7,1.1,1.1,1.8,1.1c0.3,0,0.6-0.1,0.9-0.2c1-0.5,1.4-1.7,0.9-2.7  C60.8,41.1,55.2,37.6,49.2,37.6z"/><path xmlns="http://www.w3.org/2000/svg" d="M70,41.5c-3.8-7.9-12-13.1-20.8-13.1s-17,5.1-20.8,13.1c-0.5,1-0.1,2.2,0.9,2.7c0.3,0.1,0.6,0.2,0.9,0.2  c0.7,0,1.5-0.4,1.8-1.1c3.1-6.6,9.9-10.8,17.2-10.8s14,4.2,17.2,10.8c0.3,0.7,1.1,1.1,1.8,1.1c0.3,0,0.6-0.1,0.9-0.2  C70.1,43.7,70.5,42.5,70,41.5z"/><path xmlns="http://www.w3.org/2000/svg" d="M49.2,47c-3.1,0-5.9,1.7-7.3,4.4c-0.5,1-0.1,2.2,0.9,2.7c0.3,0.2,0.6,0.2,0.9,0.2c0.7,0,1.4-0.4,1.8-1.1  c0.7-1.4,2.2-2.3,3.8-2.3s3,0.9,3.8,2.3c0.4,0.7,1.1,1.1,1.8,1.1c0.3,0,0.6-0.1,0.9-0.2c1-0.5,1.4-1.7,0.9-2.7  C55.1,48.7,52.3,47,49.2,47z"/><path xmlns="http://www.w3.org/2000/svg" d="M78.5,100H56.1V75c0-0.1-0.1-0.3-0.3-0.3H42.7c-0.1,0-0.3,0.1-0.3,0.3v25H20.1c-3.6,0-6.5-2.9-6.5-6.5V40.7  c0-1.5,0.5-3,1.5-4.2L44.3,2.3c1.2-1.4,3-2.3,4.9-2.3l0,0c1.9,0,3.7,0.8,4.9,2.3l29.2,34.2c1,1.2,1.5,2.7,1.5,4.2v52.8  C84.9,97.1,82,100,78.5,100z M60.1,96h18.4c1.4,0,2.5-1.1,2.5-2.5V40.7c0-0.6-0.2-1.2-0.6-1.6L51.1,4.9C50.7,4.3,50,4,49.3,4l0,0  c-0.7,0-1.4,0.3-1.9,0.9L18.2,39.1c-0.4,0.4-0.6,1-0.6,1.6v52.8c0,1.4,1.1,2.5,2.5,2.5h18.4V75c0-2.4,1.9-4.3,4.3-4.3h13.1  c2.4,0,4.3,1.9,4.3,4.3v21H60.1z"/></g><g id="SvgjsG1029" featureKey="nameLeftFeature-0" transform="matrix(2.516314328646855,0,0,2.516314328646855,-2.579975946562493,122.20680956788736)" fill="#000"><path d="M8.0566 20.18555 c-4.0039 0 -7.0313 -2.7344 -7.0313 -7.1582 c0 -4.4043 3.0273 -7.1484 7.0313 -7.1484 c2.9297 0 5.332 1.4844 6.377 3.9746 l-2.1777 0.83008 c-0.72266 -1.6699 -2.3047 -2.627 -4.1992 -2.627 c-2.6367 0 -4.6973 1.8359 -4.6973 4.9707 c0 3.1543 2.0605 4.9805 4.6973 4.9805 c1.8945 0 3.4766 -0.94727 4.1992 -2.6172 l2.1777 0.83008 c-1.0449 2.4902 -3.4473 3.9648 -6.377 3.9648 z M23.19331875 20.18555 c-4.0039 0 -7.0313 -2.7441 -7.0313 -7.1582 c0 -4.4043 3.0273 -7.1484 7.0313 -7.1484 c3.9941 0 7.0215 2.7441 7.0215 7.1484 c0 4.4141 -3.0273 7.1582 -7.0215 7.1582 z M23.19331875 18.0176 c2.6367 0 4.6973 -1.8262 4.6973 -4.9902 c0 -3.1348 -2.0605 -4.9707 -4.6973 -4.9707 s-4.6973 1.8359 -4.6973 4.9707 c0 3.1641 2.0605 4.9902 4.6973 4.9902 z M42.676 6.074 l2.334 0 l0 13.926 l-2.6172 0 l-6.8359 -10.625 l0 10.625 l-2.3145 0 l0 -13.926 l2.5879 0 l6.8457 10.557 l0 -10.557 z M53.466753125 20.18555 c-2.9492 0 -5.1563 -1.4063 -5.6055 -3.8672 l2.4023 -0.55664 c0.25391 1.6016 1.5723 2.4805 3.291 2.4805 c1.3574 0 2.5879 -0.57617 2.5684 -2.041 c-0.019531 -1.5234 -1.709 -1.9629 -3.5352 -2.4805 c-2.1094 -0.61523 -4.2773 -1.3184 -4.2773 -3.877 c0 -2.5977 2.1289 -3.9648 4.7754 -3.9648 c2.4414 0 4.7559 1.0254 5.293 3.5254 l-2.2559 0.56641 c-0.3125 -1.4844 -1.4648 -2.1387 -2.9199 -2.1387 c-1.2988 0 -2.5293 0.55664 -2.5293 1.9727 c0 1.2891 1.4746 1.6895 3.1641 2.1582 c2.1777 0.60547 4.6973 1.3477 4.6973 4.1406 c0 2.8809 -2.4121 4.082 -5.0684 4.082 z"/></g><g id="SvgjsG1030" featureKey="nameRightFeature-0" transform="matrix(2.516314328646855,0,0,2.516314328646855,148.9870000515945,122.20680956788736)" fill="#000"><path d="M7.5293 6.074 c2.6172 0 4.2871 1.9629 4.2871 4.3848 c0 2.4609 -1.6699 4.3457 -4.2871 4.3457 l-3.2031 0 l0 5.1953 l-2.334 0 l0 -13.926 l5.5371 0 z M7.1582 12.8125 c1.5625 0 2.3828 -0.95703 2.3828 -2.3828 c0 -1.377 -0.82031 -2.3828 -2.3828 -2.3828 l-2.832 0 l0 4.7656 l2.832 0 z M23.720890625 20 l-1.1035 -3.0957 l-6.084 0 l-1.0938 3.0957 l-2.4121 0 l5.127 -13.926 l2.8418 0 l5.127 13.926 l-2.4023 0 z M17.246090625 14.9023 l4.668 0 l-2.334 -6.582 z M34.628865625 20.18555 c-4.0039 0 -7.0313 -2.7344 -7.0313 -7.1582 c0 -4.4043 3.0273 -7.1484 7.0313 -7.1484 c2.9297 0 5.332 1.4844 6.377 3.9746 l-2.1777 0.83008 c-0.72266 -1.6699 -2.3047 -2.627 -4.1992 -2.627 c-2.6367 0 -4.6973 1.8359 -4.6973 4.9707 c0 3.1543 2.0605 4.9805 4.6973 4.9805 c1.8945 0 3.4766 -0.94727 4.1992 -2.6172 l2.1777 0.83008 c-1.0449 2.4902 -3.4473 3.9648 -6.377 3.9648 z M51.474584375 8.154 l-5.4102 0 l0 3.8574 l4.7852 0 l0 2.0605 l-4.7852 0 l0 3.8379 l5.4102 0 l0 2.0898 l-7.7734 0 l0 -13.926 l7.7734 0 l0 2.0801 z M59.130815625 20.18555 c-2.9492 0 -5.1563 -1.4063 -5.6055 -3.8672 l2.4023 -0.55664 c0.25391 1.6016 1.5723 2.4805 3.291 2.4805 c1.3574 0 2.5879 -0.57617 2.5684 -2.041 c-0.019531 -1.5234 -1.709 -1.9629 -3.5352 -2.4805 c-2.1094 -0.61523 -4.2773 -1.3184 -4.2773 -3.877 c0 -2.5977 2.1289 -3.9648 4.7754 -3.9648 c2.4414 0 4.7559 1.0254 5.293 3.5254 l-2.2559 0.56641 c-0.3125 -1.4844 -1.4648 -2.1387 -2.9199 -2.1387 c-1.2988 0 -2.5293 0.55664 -2.5293 1.9727 c0 1.2891 1.4746 1.6895 3.1641 2.1582 c2.1777 0.60547 4.6973 1.3477 4.6973 4.1406 c0 2.8809 -2.4121 4.082 -5.0684 4.082 z"/></g>
			</g>
		</svg>
	